<?xml version="1.0" encoding="UTF-8"?>
<svg id="Capa_2" data-name="Capa 2" xmlns="http://www.w3.org/2000/svg" viewBox="0 0 24 23.92">
  <defs>
    <style>
      .cls-1 {
        fill: none;
        stroke: #000;
        stroke-linecap: round;
        stroke-linejoin: round;
      }
    </style>
  </defs>
  <g id="transport">
    <g id="pool">
      <path class="cls-1" d="M.5,21.58c1.92,0,1.92,1.84,3.83,1.84s1.92-1.84,3.83-1.84,1.92,1.84,3.83,1.84,1.92-1.84,3.83-1.84,1.92,1.84,3.84,1.84,1.92-1.84,3.84-1.84"/>
      <path class="cls-1" d="M11.5,5.5V3.5c0-1.66-1.34-3-3-3s-3,1.34-3,3V19.5"/>
      <path class="cls-1" d="M23.5,5.5V3.5c0-1.66-1.34-3-3-3s-3,1.34-3,3V19.5"/>
      <line class="cls-1" x1="5.5" y1="9.5" x2="17.5" y2="9.5"/>
      <line class="cls-1" x1="5.5" y1="15.5" x2="17.5" y2="15.5"/>
    </g>
  </g>
</svg>