<?xml version="1.0" encoding="UTF-8"?>
<svg id="Capa_2" data-name="Capa 2" xmlns="http://www.w3.org/2000/svg" viewBox="0 0 21 24">
  <defs>
    <style>
      .cls-1 {
        fill: none;
        stroke: #000;
        stroke-linecap: round;
        stroke-linejoin: round;
      }
    </style>
  </defs>
  <g id="transport">
    <g>
      <path class="cls-1" d="M10.5,19.5h9c.55,0,1-.45,1-1v-2.13c0-.47-.34-.84-.79-.97-2.31-.66-2.76-3.41-3.21-8.9-.25-2.99-2-6-6-6S4.75,3.51,4.5,6.5c-.45,5.49-.91,8.24-3.21,8.9-.45,.13-.79,.5-.79,.97v2.13c0,.55,.45,1,1,1H10.5Z"/>
      <path class="cls-1" d="M10.5,23.5h0c-1.1,0-2-.9-2-2v-2h4v2c0,1.1-.9,2-2,2Z"/>
    </g>
  </g>
</svg>