<?xml version="1.0" encoding="UTF-8"?>
<svg id="Capa_2" data-name="Capa 2" xmlns="http://www.w3.org/2000/svg" viewBox="0 0 24 24">
  <defs>
    <style>
      .cls-1 {
        fill: none;
        stroke: #000;
        stroke-linecap: round;
        stroke-linejoin: round;
      }
    </style>
  </defs>
  <g id="transport">
    <g>
      <path class="cls-1" d="M4.5,17.5h1V9.5h-1c-2.21,0-4,1.79-4,4H.5c0,2.21,1.79,4,4,4Z"/>
      <path class="cls-1" d="M19.5,17.5h-1V9.5h1c2.21,0,4,1.79,4,4h0c0,2.21-1.79,4-4,4Z"/>
      <path class="cls-1" d="M4.5,9.5v-1.5C4.5,3.86,7.86,.5,12,.5h0c4.14,0,7.5,3.36,7.5,7.5v1.5"/>
      <path class="cls-1" d="M19.5,17.5c0,2-1,4-4,4"/>
      <path class="cls-1" d="M14,23.5h-2c-.83,0-1.5-.67-1.5-1.5h0c0-.83,.67-1.5,1.5-1.5h2c.83,0,1.5,.67,1.5,1.5h0c0,.83-.67,1.5-1.5,1.5Z"/>
    </g>
  </g>
</svg>