<?xml version="1.0" encoding="UTF-8"?>
<svg id="Capa_2" data-name="Capa 2" xmlns="http://www.w3.org/2000/svg" viewBox="0 0 22.01 21">
  <defs>
    <style>
      .cls-1, .cls-2 {
        fill: none;
      }

      .cls-1, .cls-2, .cls-3 {
        stroke: #000;
      }

      .cls-1, .cls-3 {
        stroke-miterlimit: 10;
      }

      .cls-2 {
        stroke-linecap: round;
        stroke-linejoin: round;
      }

      .cls-3 {
        fill: #163567;
      }
    </style>
  </defs>
  <g id="transport">
    <g id="taxi">
      <path class="cls-2" d="M21.51,15.5c.05-2.76-.19-6.43-2-8H2.51C.7,9.07,.46,12.74,.51,15.5"/>
      <polyline class="cls-2" points=".51 15.5 .51 17.5 21.51 17.5 21.51 15.5"/>
      <path class="cls-2" d="M9.62,10.5h2.78c1.16,0,2.11,.95,2.11,2.11v2.89H7.51v-2.89c0-1.16,.95-2.11,2.11-2.11Z"/>
      <circle class="cls-3" cx="4.01" cy="11" r="1"/>
      <circle class="cls-3" cx="18.01" cy="11" r="1"/>
      <path class="cls-2" d="M4.51,17.5v2c0,.55-.45,1-1,1h-1c-.55,0-1-.45-1-1v-2h3"/>
      <path class="cls-2" d="M17.51,17.5v2c0,.55,.45,1,1,1h1c.55,0,1-.45,1-1v-2h-3"/>
      <path class="cls-2" d="M2.51,7.5L3.51,2.5c.37-1.29,1.66-2,3-2H15.51c1.34,0,2.63,.71,3,2l1,5"/>
      <line class="cls-1" x1="14.51" y1=".5" x2="7.51" y2=".5"/>
    </g>
  </g>
</svg>