<?xml version="1.0" encoding="UTF-8"?>
<svg id="Capa_2" data-name="Capa 2" xmlns="http://www.w3.org/2000/svg" viewBox="0 0 21 24">
  <defs>
    <style>
      .cls-1 {
        fill: none;
        stroke: #000;
        stroke-linecap: round;
        stroke-linejoin: round;
      }
    </style>
  </defs>
  <g id="transport">
    <g>
      <path class="cls-1" d="M12.5,2.5c0,1.1-2,4-2,4,0,0-2-2.9-2-4s.9-2,2-2,2,.9,2,2Z"/>
      <path class="cls-1" d="M5.5,5.5c1.1,0,4,2,4,2,0,0-2.9,2-4,2s-2-.9-2-2,.9-2,2-2Z"/>
      <path class="cls-1" d="M8.5,12.5c0-1.1,2-4,2-4,0,0,2,2.9,2,4s-.9,2-2,2-2-.9-2-2Z"/>
      <path class="cls-1" d="M15.5,9.5c-1.1,0-4-2-4-2,0,0,2.9-2,4-2s2,.9,2,2-.9,2-2,2Z"/>
      <path class="cls-1" d="M10.5,23.5c2-7,4-10,10-10-4,6-4,10-10,10Z"/>
      <path class="cls-1" d="M10.5,23.5C8.5,16.5,6.5,13.5,.5,13.5c4,6,4,10,10,10Z"/>
    </g>
  </g>
</svg>