<?xml version="1.0" encoding="UTF-8"?>
<svg id="Capa_2" data-name="Capa 2" xmlns="http://www.w3.org/2000/svg" viewBox="0 0 24 23">
  <defs>
    <style>
      .cls-1 {
        fill: none;
        stroke: #000;
        stroke-linecap: round;
        stroke-linejoin: round;
      }
    </style>
  </defs>
  <g id="transport">
    <g id="jacuzzi">
      <path class="cls-1" d="M17.65,7.08c3.49,.77,5.85,2.24,5.85,3.92,0,2.49-5.15,4.5-11.5,4.5S.5,13.49,.5,11c0-1.64,2.25-3.08,5.6-3.86"/>
      <path class="cls-1" d="M23.5,11.5v8c0,1.1-5.15,3-11.5,3S.5,20.6,.5,19.5v-8"/>
      <path class="cls-1" d="M10.5,12.5c0-.57,2-2.15,2-4,0-1.29-2-2.71-2-4,0-1.85,2-3.43,2-4"/>
      <path class="cls-1" d="M14.5,12.5c0-.57,2-2.15,2-4,0-1.29-2-2.71-2-4,0-1.85,2-3.43,2-4"/>
      <path class="cls-1" d="M6.5,12.5c0-.57,2-2.15,2-4,0-1.29-2-2.71-2-4,0-1.85,2-3.43,2-4"/>
    </g>
  </g>
</svg>