<?xml version="1.0" encoding="UTF-8"?>
<svg id="Capa_2" data-name="Capa 2" xmlns="http://www.w3.org/2000/svg" viewBox="0 0 24 24">
  <defs>
    <style>
      .cls-1 {
        fill: none;
        stroke-linecap: round;
        stroke-linejoin: round;
      }

      .cls-1, .cls-2 {
        stroke: #000;
      }

      .cls-2 {
        fill: #163567;
        stroke-miterlimit: 10;
      }
    </style>
  </defs>
  <g id="transport">
    <g id="fax">
      <path class="cls-1" d="M18.5,17.5h4.01c.55,0,.99-.47,.99-1.04v-7.36c0-.39-.12-.78-.33-1.11l-1.66-2.5H2.5L.84,8c-.22,.33-.34,.71-.34,1.11v7.35c0,.57,.45,1.04,.99,1.04H5.5"/>
      <rect class="cls-1" x="5.5" y=".5" width="13" height="5"/>
      <rect class="cls-1" x="5.5" y="14.5" width="13" height="9"/>
      <line class="cls-1" x1="8.5" y1="17.5" x2="15.5" y2="17.5"/>
      <line class="cls-1" x1="8.5" y1="20.5" x2="13.5" y2="20.5"/>
      <circle class="cls-2" cx="17.5" cy="9.5" r=".5"/>
      <circle class="cls-2" cx="20.5" cy="9.5" r=".5"/>
      <line class="cls-1" x1="3.5" y1="14.5" x2="20.5" y2="14.5"/>
    </g>
  </g>
</svg>