<?xml version="1.0" encoding="UTF-8"?>
<svg id="Capa_2" data-name="Capa 2" xmlns="http://www.w3.org/2000/svg" viewBox="0 0 24 24">
  <defs>
    <style>
      .cls-1 {
        stroke-miterlimit: 10;
      }

      .cls-1, .cls-2 {
        fill: none;
        stroke: #000;
      }

      .cls-2 {
        stroke-linecap: round;
        stroke-linejoin: round;
      }
    </style>
  </defs>
  <g id="transport">
    <g>
      <path class="cls-1" d="M2.5,11.5H21.5v11c0,.55-.45,1-1,1H3.5c-.55,0-1-.45-1-1V11.5h0Z"/>
      <rect class="cls-1" x=".5" y="7.5" width="23" height="4" rx="1" ry="1"/>
      <rect class="cls-2" x="10.5" y="7.5" width="3" height="16"/>
      <path class="cls-2" d="M15.5,7.5c1.93,0,3.5-1.57,3.5-3.5s-1.57-3.5-3.5-3.5-3.5,1.57-3.5,3.5v3.5h3.5"/>
      <path class="cls-2" d="M8.5,7.5h3.5v-3.5c0-1.93-1.57-3.5-3.5-3.5s-3.5,1.57-3.5,3.5,1.57,3.5,3.5,3.5"/>
    </g>
  </g>
</svg>