<?xml version="1.0" encoding="UTF-8"?>
<svg id="Capa_2" data-name="Capa 2" xmlns="http://www.w3.org/2000/svg" viewBox="0 0 594.4 842.16">
  <defs>
    <style>
      .cls-1 {
        fill: none;
        opacity: .2;
        stroke: #c18934;
        stroke-miterlimit: 10;
      }
    </style>
  </defs>
  <g id="Capa_1-2" data-name="Capa 1">
    <path class="cls-1" d="M.42,531.62c23.53-20.9,39.22-26.78,49.46-22.29,45.01,19.73-41.47,218.63,23.69,267.47,45.39,34.02,158.64-9.22,209.85-82.87,42.26-60.8,32.47-128.25,52.91-130.3,32.35-3.25,64.88,159.44,99.86,161.02,6.37,.29,13.71-9.12,23.24-33.02,65-163-68-103,0-252,68-149-99.54-217.33,18.45-258C552.42,155.93,564.42,.04,564.42,.04h0"/>
    <path class="cls-1" d="M.42,178.93S98.42,28.93,258.42,130.93s111-60,254-27,68,206,0,235-374.34-274-381.17,0"/>
    <path class="cls-1" d="M221.42,841.93c77-147,161-5,116-155s230,174,226,10-361.74-191.2-202-327C521.15,234.13,643.72,24.93,530.07,62.93S83.42-51.07,115.42,66.93s272,107,91,216-49.19,131.53-98,168C.42,531.62,26.26,674.85,71.84,775.91c2.07,4.58,4.52,7.64,8.37,9.1,46.7,17.75,201.6-281.74,210.04-298.17,0,0,1.81-3.52,47.82-93.58h0s-10.64-40.33,14.2-228.65c5.27-39.94,.94-60.18-9.81-65.25-36.87-17.39-155.57,182.8-199.76,277.09-4.07,8.68-14.25,30.86-23.54,61.45-19.45,64.1-34.33,107.57-16.73,133.03,25.41,36.74,133.83,18.41,349.63-19.77,29.36-5.19,59.42-9.7,64.75-29.71,10.43-39.15-129.61-104.09-95.4-207.52,7.27-21.98,4.95-28.15-.68-38.08-38-67.05-370.55-7.7-392.31,97.08-26.52,127.66,396.27,380.82,490,299,103.59-90.42-187.64-596.19-250.19-577.11-23.02,7.02-6.62,82.59-58.57,113.23-27.23,16.06-66.82,21.15-124.24,.88C50.13,196.47,19.96,188.71,.42,178.93"/>
    <path class="cls-1" d="M290.24,486.84s-149.11-127.49-68.97-213.2,343.14,16.17,343.14,16.17c0,0,8.11,222.11-124.95,222.11s-95.98,334.17-183.02,213.09-271.03,122.25-207.96-11.53S-45.58,422.96,27.42,379.94s262.83,106.89,262.83,106.89Z"/>
  </g>
</svg>